<svg xmlns="http://www.w3.org/2000/svg" viewBox="0 0 589 120" role="img" aria-label="NailsConnection.Z">
  <path fill="#f6f0ec" d="M25.44 29.90L39.79 48.77L39.04 49.01L39.04 29.90L41.76 29.90L41.76 52L39.04 52L24.69 33.16L25.44 32.93L25.44 52L22.72 52L22.72 29.90 M73.18 46.22L62.57 46.22L62.57 43.67L73.18 43.67L73.18 46.22M60.94 52L58.08 52L66.48 29.90L69.33 29.90L77.80 52L74.88 52L67.50 32.01L68.31 32.01 M94.80 52L94.80 29.90L97.52 29.90L97.52 52 M116.56 29.90L119.28 29.90L119.28 49.45L131.52 49.45L131.52 52L116.56 52 M147.36 44.83L149.81 44.83Q149.91 46.25 150.66 47.38Q151.41 48.50 152.72 49.14Q154.03 49.79 155.80 49.79Q157.33 49.79 158.36 49.33Q159.40 48.87 159.93 48.06Q160.45 47.24 160.45 46.15Q160.45 45.03 159.91 44.35Q159.37 43.67 158.35 43.19Q157.33 42.72 155.93 42.28Q154.61 41.87 153.25 41.32Q151.89 40.78 150.71 40Q149.54 39.22 148.83 38.11Q148.11 37.01 148.11 35.44Q148.11 33.91 148.95 32.57Q149.78 31.23 151.39 30.39Q153.01 29.56 155.29 29.56Q158.86 29.56 160.62 31.50Q162.39 33.44 162.32 36.63L159.88 36.63Q159.81 34.22 158.52 33.16Q157.22 32.11 155.15 32.11Q153.42 32.11 152.12 32.91Q150.83 33.71 150.83 35.41Q150.83 36.16 151.12 36.72Q151.41 37.28 152.07 37.75Q152.74 38.23 153.88 38.69Q155.01 39.15 156.68 39.69Q157.77 40.03 158.91 40.51Q160.05 40.98 161.02 41.70Q161.98 42.41 162.58 43.52Q163.17 44.62 163.17 46.29Q163.17 47.89 162.41 49.26Q161.64 50.64 160.03 51.49Q158.41 52.34 155.86 52.34Q153.69 52.34 152.14 51.74Q150.59 51.15 149.61 50.20Q148.62 49.25 148.10 48.21Q147.57 47.17 147.40 46.25Q147.23 45.34 147.36 44.83 M196.66 44.62L199.18 44.62Q198.84 47 197.55 48.74Q196.26 50.47 194.27 51.41Q192.28 52.34 189.83 52.34Q187.55 52.34 185.61 51.54Q183.68 50.74 182.23 49.25Q180.79 47.75 179.97 45.64Q179.15 43.53 179.15 40.95Q179.15 38.33 179.97 36.24Q180.79 34.15 182.23 32.65Q183.68 31.16 185.61 30.36Q187.55 29.56 189.83 29.56Q192.31 29.56 194.30 30.49Q196.29 31.43 197.58 33.18Q198.87 34.93 199.21 37.35L196.70 37.35Q196.22 35.65 195.22 34.49Q194.22 33.33 192.82 32.72Q191.43 32.11 189.83 32.11Q187.76 32.11 185.94 33.13Q184.12 34.15 183 36.12Q181.87 38.09 181.87 40.95Q181.87 43.81 183 45.78Q184.12 47.75 185.94 48.77Q187.76 49.79 189.83 49.79Q191.43 49.79 192.81 49.20Q194.18 48.60 195.19 47.44Q196.19 46.29 196.66 44.62 M226.41 52.34Q223.39 52.34 220.92 50.93Q218.46 49.52 217 46.97Q215.53 44.42 215.53 40.95Q215.53 37.48 217 34.91Q218.46 32.35 220.92 30.95Q223.39 29.56 226.41 29.56Q229.44 29.56 231.91 30.95Q234.37 32.35 235.83 34.91Q237.29 37.48 237.29 40.95Q237.29 44.42 235.83 46.97Q234.37 49.52 231.91 50.93Q229.44 52.34 226.41 52.34M226.41 49.79Q228.73 49.79 230.56 48.79Q232.40 47.78 233.49 45.81Q234.57 43.84 234.57 40.95Q234.57 38.06 233.49 36.10Q232.40 34.15 230.56 33.13Q228.73 32.11 226.41 32.11Q224.14 32.11 222.28 33.13Q220.43 34.15 219.34 36.10Q218.25 38.06 218.25 40.95Q218.25 43.84 219.34 45.81Q220.43 47.78 222.28 48.79Q224.14 49.79 226.41 49.79 M257.35 29.90L271.70 48.77L270.95 49.01L270.95 29.90L273.67 29.90L273.67 52L270.95 52L256.61 33.16L257.35 32.93L257.35 52L254.63 52L254.63 29.90 M294.75 29.90L309.10 48.77L308.35 49.01L308.35 29.90L311.07 29.90L311.07 52L308.35 52L294.01 33.16L294.75 32.93L294.75 52L292.03 52L292.03 29.90 M342.73 42.28L332.15 42.28L332.15 49.45L345.11 49.45L345.11 52L329.43 52L329.43 29.90L345.07 29.90L345.07 32.45L332.15 32.45L332.15 39.73L342.73 39.73 M379.28 44.62L381.79 44.62Q381.45 47 380.16 48.74Q378.87 50.47 376.88 51.41Q374.89 52.34 372.44 52.34Q370.17 52.34 368.23 51.54Q366.29 50.74 364.84 49.25Q363.40 47.75 362.58 45.64Q361.77 43.53 361.77 40.95Q361.77 38.33 362.58 36.24Q363.40 34.15 364.84 32.65Q366.29 31.16 368.23 30.36Q370.17 29.56 372.44 29.56Q374.93 29.56 376.91 30.49Q378.90 31.43 380.20 33.18Q381.49 34.93 381.83 37.35L379.31 37.35Q378.84 35.65 377.83 34.49Q376.83 33.33 375.44 32.72Q374.04 32.11 372.44 32.11Q370.37 32.11 368.55 33.13Q366.73 34.15 365.61 36.12Q364.49 38.09 364.49 40.95Q364.49 43.81 365.61 45.78Q366.73 47.75 368.55 48.77Q370.37 49.79 372.44 49.79Q374.04 49.79 375.42 49.20Q376.80 48.60 377.80 47.44Q378.80 46.29 379.28 44.62 M396.96 32.45L396.96 29.90L414.64 29.90L414.64 32.45L396.96 32.45M404.44 52L404.44 32.18L407.16 32.18L407.16 52 M431.47 52L431.47 29.90L434.19 29.90L434.19 52 M463.09 52.34Q460.06 52.34 457.60 50.93Q455.13 49.52 453.67 46.97Q452.21 44.42 452.21 40.95Q452.21 37.48 453.67 34.91Q455.13 32.35 457.60 30.95Q460.06 29.56 463.09 29.56Q466.11 29.56 468.58 30.95Q471.04 32.35 472.51 34.91Q473.97 37.48 473.97 40.95Q473.97 44.42 472.51 46.97Q471.04 49.52 468.58 50.93Q466.11 52.34 463.09 52.34M463.09 49.79Q465.40 49.79 467.24 48.79Q469.07 47.78 470.16 45.81Q471.25 43.84 471.25 40.95Q471.25 38.06 470.16 36.10Q469.07 34.15 467.24 33.13Q465.40 32.11 463.09 32.11Q460.81 32.11 458.96 33.13Q457.10 34.15 456.02 36.10Q454.93 38.06 454.93 40.95Q454.93 43.84 456.02 45.81Q457.10 47.78 458.96 48.79Q460.81 49.79 463.09 49.79 M494.03 29.90L508.38 48.77L507.63 49.01L507.63 29.90L510.35 29.90L510.35 52L507.63 52L493.28 33.16L494.03 32.93L494.03 52L491.31 52L491.31 29.90 M528.20 48.67L531.73 48.67L531.73 52L528.20 52 M548.90 32.45L548.90 29.90L566.92 29.90L566.92 32.45L551.62 50.37L551.18 49.45L566.92 49.45L566.92 52L548.90 52L548.90 49.45L564.27 31.53L564.71 32.45"/>
  <path fill="#c9a27b" d="M176.80 88L175.91 88L175.91 78.20L176.80 78.20L183.05 86.56L183.05 78.20L183.94 78.20L183.94 88L183.05 88L176.80 79.63 M190.92 88L189.96 88L194 78.20L194.92 78.20L198.95 88L198 88L196.75 84.96L192.16 84.96L190.92 88M194.46 79.33L192.48 84.15L196.43 84.15 M205.87 88L204.97 88L204.97 78.20L205.87 78.20 M218.79 88L213.15 88L213.15 78.20L214.04 78.20L214.04 87.19L218.79 87.19  M235.62 88L234.72 88L234.72 79.01L231.53 79.01L231.53 78.20L238.81 78.20L238.81 79.01L235.62 79.01 M250.47 88L244.83 88L244.83 78.20L250.47 78.20L250.47 79.01L245.73 79.01L245.73 82.54L250.14 82.54L250.14 83.35L245.73 83.35L245.73 87.19L250.47 87.19 M261.66 88.17Q260.27 88.17 259.20 87.52Q258.13 86.87 257.52 85.72Q256.91 84.58 256.91 83.10Q256.91 81.62 257.51 80.47Q258.12 79.33 259.18 78.68Q260.24 78.03 261.62 78.03Q262.44 78.03 263.23 78.33Q264.02 78.63 264.67 79.17Q265.31 79.71 265.66 80.41L264.92 80.87Q264.63 80.27 264.10 79.82Q263.58 79.36 262.93 79.10Q262.29 78.84 261.62 78.84Q260.51 78.84 259.65 79.39Q258.79 79.94 258.30 80.89Q257.81 81.85 257.81 83.10Q257.81 84.36 258.30 85.33Q258.79 86.29 259.66 86.84Q260.54 87.38 261.66 87.38Q262.34 87.38 262.99 87.10Q263.63 86.81 264.16 86.31Q264.68 85.80 264.98 85.16L265.72 85.62Q265.35 86.36 264.72 86.94Q264.08 87.52 263.28 87.85Q262.48 88.17 261.66 88.17 M273.05 88L272.16 88L272.16 78.20L273.05 78.20L273.05 82.54L278.99 82.54L278.99 78.20L279.89 78.20L279.89 88L278.99 88L278.99 83.35L273.05 83.35  M295.51 84.15Q295.24 84.15 295.06 83.96Q294.87 83.77 294.87 83.51Q294.87 83.24 295.06 83.05Q295.24 82.86 295.51 82.86Q295.78 82.86 295.97 83.05Q296.15 83.24 296.15 83.51Q296.15 83.77 295.97 83.96Q295.78 84.15 295.51 84.15  M315.52 88.17Q314.03 88.17 312.88 87.52Q311.74 86.87 311.09 85.72Q310.43 84.58 310.43 83.11Q310.43 81.62 311.09 80.47Q311.74 79.33 312.88 78.68Q314.03 78.03 315.52 78.03Q316.26 78.03 317 78.28Q317.74 78.54 318.37 78.98Q318.99 79.42 319.37 79.99L318.68 80.51Q318.37 80.02 317.86 79.64Q317.35 79.26 316.74 79.05Q316.13 78.84 315.52 78.84Q314.30 78.84 313.35 79.39Q312.41 79.94 311.87 80.89Q311.33 81.85 311.33 83.11Q311.33 84.35 311.87 85.31Q312.41 86.26 313.35 86.81Q314.30 87.36 315.52 87.36Q316.54 87.36 317.34 86.92Q318.13 86.49 318.59 85.71Q319.04 84.93 319.04 83.93L316.58 83.93L316.58 83.10L319.91 83.10L319.91 83.93Q319.91 85.16 319.35 86.12Q318.79 87.08 317.80 87.62Q316.80 88.17 315.52 88.17 M327.25 88L326.35 88L326.35 78.20L329.36 78.20Q330.29 78.20 331 78.57Q331.71 78.94 332.11 79.59Q332.51 80.24 332.51 81.10Q332.51 82.06 331.94 82.78Q331.36 83.49 330.45 83.80L332.90 88L331.92 88L329.57 83.98Q329.47 84 329.38 84Q329.28 84 329.18 84L327.25 84L327.25 88M327.25 79.01L327.25 83.17L329.60 83.17Q330.16 83.17 330.62 82.90Q331.07 82.64 331.35 82.17Q331.63 81.70 331.63 81.10Q331.63 80.17 330.99 79.59Q330.36 79.01 329.36 79.01 M345.13 88L339.48 88L339.48 78.20L345.13 78.20L345.13 79.01L340.38 79.01L340.38 82.54L344.79 82.54L344.79 83.35L340.38 83.35L340.38 87.19L345.13 87.19 M353.16 88L352.27 88L352.27 78.20L353.16 78.20L359.41 86.56L359.41 78.20L360.30 78.20L360.30 88L359.41 88L353.16 79.63 M371.63 88.17Q370.24 88.17 369.17 87.52Q368.10 86.88 367.49 85.73Q366.88 84.58 366.88 83.10Q366.88 81.60 367.48 80.46Q368.09 79.32 369.14 78.68Q370.20 78.03 371.59 78.03Q372.97 78.03 374.04 78.68Q375.10 79.33 375.70 80.47Q376.29 81.62 376.29 83.10Q376.29 84.58 375.70 85.73Q375.10 86.88 374.05 87.52Q373 88.17 371.63 88.17M371.63 87.36Q372.73 87.36 373.58 86.81Q374.43 86.26 374.91 85.31Q375.39 84.35 375.39 83.10Q375.39 81.85 374.90 80.89Q374.41 79.94 373.56 79.39Q372.71 78.84 371.59 78.84Q370.48 78.84 369.62 79.39Q368.76 79.94 368.27 80.89Q367.78 81.85 367.78 83.10Q367.78 84.35 368.27 85.31Q368.76 86.26 369.63 86.81Q370.51 87.36 371.63 87.36 M386.26 88L382.87 88L382.87 78.20L385.88 78.20Q386.87 78.20 387.57 78.51Q388.27 78.82 388.65 79.40Q389.03 79.99 389.03 80.82Q389.03 81.59 388.69 82.15Q388.36 82.71 387.74 83.03Q388.50 83.38 388.90 83.97Q389.31 84.57 389.31 85.38Q389.31 86.21 388.95 86.80Q388.58 87.38 387.90 87.69Q387.22 88 386.26 88M383.77 83.44L383.77 87.17L386.26 87.17Q387.28 87.17 387.85 86.70Q388.43 86.22 388.43 85.38Q388.43 84.46 387.76 83.95Q387.08 83.44 385.88 83.44L383.77 83.44M383.77 79.01L383.77 82.61L386.26 82.61Q387.15 82.61 387.65 82.13Q388.15 81.66 388.15 80.82Q388.15 79.95 387.55 79.48Q386.96 79.01 385.88 79.01 M401.53 88L395.89 88L395.89 78.20L396.79 78.20L396.79 87.19L401.53 87.19 M413.19 88L407.55 88L407.55 78.20L413.19 78.20L413.19 79.01L408.45 79.01L408.45 82.54L412.86 82.54L412.86 83.35L408.45 83.35L408.45 87.19L413.19 87.19"/>
</svg>
