<svg xmlns="http://www.w3.org/2000/svg" viewBox="-0.90 1.83 155.70 40.41" role="img" aria-label="XOhair">
  <path fill="#ffffff" d="M21.01 40.56Q20.85 40.56 20.85 40.25Q20.85 39.94 21.01 39.94Q22 39.94 22.54 39.55Q23.09 39.16 22.26 37.91L15.13 26.88L10.66 33.28Q8.48 36.35 8.63 38.14Q8.79 39.94 11.34 39.94Q11.44 39.94 11.44 40.25Q11.44 40.56 11.34 40.56Q9.83 40.56 8.48 40.51Q7.12 40.46 4.89 40.46Q3.43 40.46 2.52 40.51Q1.61 40.56 0.26 40.56Q0.10 40.56 0.10 40.25Q0.10 39.94 0.26 39.94Q1.77 39.94 4.08 38.32Q6.40 36.71 9.10 32.97L14.40 25.79L6.08 12.84Q4.63 10.56 3.35 9.62Q2.08 8.68 0.62 8.68Q0.47 8.68 0.47 8.37Q0.47 8.06 0.62 8.06Q1.66 8.06 2.83 8.14Q4 8.22 5.04 8.22Q7.28 8.22 9.18 8.14Q11.08 8.06 12.53 8.06Q12.64 8.06 12.64 8.37Q12.64 8.68 12.53 8.68Q11.54 8.68 10.97 9.05Q10.40 9.41 11.23 10.76L18.10 21.32L22.26 15.39Q24.44 12.27 24.28 10.48Q24.13 8.68 21.58 8.68Q21.48 8.68 21.48 8.37Q21.48 8.06 21.58 8.06Q23.09 8.06 24.44 8.14Q25.79 8.22 28.03 8.22Q29.54 8.22 30.45 8.14Q31.36 8.06 32.66 8.06Q32.81 8.06 32.81 8.37Q32.81 8.68 32.66 8.68Q31.15 8.68 28.83 10.32Q26.52 11.96 23.76 15.70L18.82 22.46L27.72 36.24Q29.02 38.17 30.37 39.05Q31.72 39.94 33.49 39.94Q33.64 39.94 33.64 40.25Q33.64 40.56 33.49 40.56Q32.34 40.56 30.97 40.51Q29.59 40.46 28.03 40.46Q25.79 40.46 24.13 40.51Q22.46 40.56 21.01 40.56 M56.84 41.18Q53.09 41.18 50.05 39.86Q47.01 38.53 44.85 36.19Q42.69 33.85 41.52 30.81Q40.35 27.77 40.35 24.34Q40.35 20.12 41.99 16.95Q43.63 13.78 46.33 11.67Q49.04 9.57 52.26 8.53Q55.48 7.49 58.66 7.49Q62.50 7.49 65.55 8.87Q68.59 10.24 70.72 12.58Q72.85 14.92 73.97 17.89Q75.09 20.85 75.09 23.97Q75.09 27.61 73.63 30.73Q72.18 33.85 69.65 36.19Q67.13 38.53 63.83 39.86Q60.53 41.18 56.84 41.18M58.55 39.88Q61.46 39.88 63.75 38.22Q66.04 36.56 67.37 33.33Q68.69 30.11 68.69 25.48Q68.69 20.70 67.24 16.95Q65.78 13.21 63.08 11.05Q60.37 8.89 56.58 8.89Q51.84 8.89 49.30 12.48Q46.75 16.07 46.75 22.41Q46.75 26.21 47.63 29.41Q48.52 32.60 50.10 34.97Q51.69 37.34 53.85 38.61Q56 39.88 58.55 39.88"/>
  <path fill="#ffffff" d="M79.82 40.98Q79.09 40.98 78.86 40.90Q78.62 40.82 78.62 40.66Q78.62 40.46 78.91 39.26Q79.20 38.06 79.40 36.71L84.71 8.37Q85.07 6.50 84.29 6.03Q83.51 5.56 81.17 6.71Q81.12 6.76 81.07 6.71Q80.91 6.71 80.86 6.50Q80.76 6.29 80.81 6.19Q80.86 6.14 80.91 6.14L87.62 2.86Q87.83 2.76 88.04 2.96Q88.24 3.17 88.19 3.28L83.10 31.30Q83.41 30.37 83.77 29.48Q85.59 24.91 87.96 22.36Q90.32 19.81 92.87 19.81Q95.11 19.81 95.81 21.42Q96.51 23.04 95.89 26.68L94.17 35.93Q93.91 37.49 94.15 38.22Q94.38 38.95 95.06 38.95Q95.63 38.95 96.51 38.30Q97.40 37.65 98.49 36.56Q98.70 36.35 98.90 36.56Q99.11 36.76 98.90 36.97Q97.24 38.90 95.84 39.96Q94.43 41.03 93.08 41.03Q91.73 41.03 91.39 39.88Q91.05 38.74 91.57 35.93L93.08 27.66Q93.65 24.70 93.18 23.27Q92.72 21.84 91.16 21.84Q89.49 21.84 87.67 23.97Q85.85 26.10 84.21 30.21Q82.58 34.32 81.48 40.20Q81.38 40.98 79.82 40.98 M104.21 41.24Q102.49 41.24 101.61 39.99Q100.72 38.74 101.09 35.83Q101.50 33.02 102.88 30.19Q104.26 27.35 106.26 25.01Q108.26 22.67 110.50 21.24Q112.74 19.81 114.76 19.81Q115.75 19.81 116.69 20.12Q117.52 20.49 118.20 21.27Q118.25 21.22 118.35 21.11Q119.18 20.38 119.44 19.40Q119.55 19.24 119.86 19.29Q120.07 19.34 120.07 19.40Q120.07 19.45 120.07 19.45L117.05 35.93Q116.64 38.38 117.42 38.84Q117.57 38.95 117.83 38.95Q118.40 38.95 119.31 38.30Q120.22 37.65 121.26 36.56Q121.42 36.40 121.63 36.61Q121.84 36.82 121.68 36.97Q120.02 38.90 118.61 39.96Q117.21 41.03 115.86 41.03Q114.61 41.03 114.24 39.88Q113.88 38.74 114.40 35.93L115.34 30.52Q114.19 32.81 112.89 34.74Q110.81 37.80 108.58 39.52Q106.34 41.24 104.21 41.24M106.08 38.69Q107.54 38.69 109.10 37.54Q110.66 36.40 112.09 34.55Q113.52 32.71 114.58 30.50Q115.65 28.29 116.06 26.16Q116.48 24.23 115.70 22.93Q114.92 21.63 113 21.63Q111.18 21.68 109.30 23.27Q107.43 24.86 105.98 27.48Q104.52 30.11 104 33.49Q103.64 36.09 104.13 37.39Q104.62 38.69 106.08 38.69 M128.49 41.03Q127.24 41.03 126.83 39.94Q126.41 38.84 126.98 35.93L129.12 25.12Q129.58 22.72 128.75 22.20Q128.54 22.05 128.23 22.05Q127.66 22.05 126.70 22.67Q125.74 23.30 124.64 24.44Q124.59 24.54 124.49 24.54Q124.38 24.54 124.25 24.41Q124.12 24.28 124.12 24.18Q124.12 24.08 124.23 24.02Q126 22 127.45 21.01Q128.91 20.02 130.26 20.02Q131.56 20.02 131.92 21.14Q132.29 22.26 131.72 25.01L129.64 35.93Q129.32 37.49 129.58 38.22Q129.84 38.95 130.47 38.95Q131.04 38.95 131.98 38.35Q132.91 37.75 134 36.66Q134.21 36.45 134.42 36.66Q134.63 36.87 134.42 37.08Q132.70 39 131.27 40.01Q129.84 41.03 128.49 41.03M131.77 13.88Q130.73 13.88 130.13 13.31Q129.53 12.74 129.53 11.65Q129.53 10.66 130.13 10.09Q130.73 9.52 131.77 9.52Q132.86 9.52 133.41 10.09Q133.95 10.66 133.95 11.65Q133.95 13.88 131.77 13.88 M141.75 39.94L141.70 40.20Q141.54 40.98 140.04 40.98Q139.31 40.98 139.10 40.90Q138.89 40.82 138.89 40.66Q138.89 40.46 139.18 39.18Q139.46 37.91 139.67 36.71L141.39 27.09Q141.80 25.01 141.70 23.95Q141.60 22.88 141.23 22.46Q140.87 22.05 140.45 22.05Q139.72 22.05 138.89 22.67Q138.06 23.30 137.28 23.97Q137.23 24.02 137.23 24.02Q137.12 24.08 136.97 23.92Q136.76 23.71 136.86 23.56Q138.42 21.79 139.78 20.90Q141.13 20.02 142.48 20.02Q143.42 20.02 143.94 20.62Q144.46 21.22 144.51 22.72Q144.56 24.23 144.04 26.99L143 32.92Q143.52 31.25 144.09 29.69Q145.08 27.04 146.22 24.86Q147.37 22.67 148.56 21.35Q149.76 20.02 150.96 20.02Q151.68 20.02 152.36 20.41Q153.04 20.80 153.48 21.42Q153.92 22.05 153.76 22.83Q153.61 23.50 153.17 23.87Q152.72 24.23 152.10 24.23Q151.32 24.23 150.93 23.82Q150.54 23.40 150.25 22.96Q149.97 22.52 149.45 22.52Q148.72 22.52 147.84 23.74Q146.95 24.96 146.02 26.96Q145.08 28.96 144.22 31.33Q143.36 33.70 142.69 36.04Q142.06 38.22 141.75 39.94"/>
</svg>