<svg xmlns="http://www.w3.org/2000/svg" viewBox="0 0 219.82 65.18" role="img" aria-label="XOhair">
  <path fill="#ffffff" d="M34.66 58.25Q34.51 58.25 34.51 57.82Q34.51 57.38 34.66 57.38Q37.61 57.38 38.36 56.77Q39.12 56.16 38.04 54.58L14.64 19.22Q12.77 16.42 10.90 15.26Q9.02 14.11 6.43 14.11Q6.29 14.11 6.29 13.68Q6.29 13.25 6.43 13.25Q7.73 13.25 9.13 13.36Q10.54 13.46 11.76 13.46Q14.64 13.46 17.05 13.36Q19.46 13.25 21.26 13.25Q21.48 13.25 21.48 13.68Q21.48 14.11 21.26 14.11Q18.31 14.11 17.59 14.76Q16.87 15.41 17.88 16.99L41.35 52.27Q43.22 55.15 45.24 56.27Q47.26 57.38 50.35 57.38Q50.50 57.38 50.50 57.82Q50.50 58.25 50.35 58.25Q48.91 58.25 47.18 58.18Q45.46 58.10 43.58 58.10Q40.78 58.10 38.65 58.18Q36.53 58.25 34.66 58.25ZM6.22 58.25Q6.00 58.25 6.00 57.82Q6.00 57.38 6.22 57.38Q8.66 57.38 11.00 55.91Q13.34 54.43 15.36 51.62L26.74 36.00L27.53 36.72L16.87 51.62Q14.86 54.43 15.65 55.91Q16.44 57.38 19.82 57.38Q20.04 57.38 20.04 57.82Q20.04 58.25 19.82 58.25Q17.95 58.25 16.26 58.18Q14.57 58.10 11.76 58.10Q9.96 58.10 8.88 58.18Q7.80 58.25 6.22 58.25ZM28.61 35.50 27.82 34.85 37.97 20.52Q40.20 17.35 39.55 15.73Q38.90 14.11 35.52 14.11Q35.30 14.11 35.30 13.68Q35.30 13.25 35.52 13.25Q37.39 13.25 39.12 13.36Q40.85 13.46 43.58 13.46Q45.38 13.46 46.46 13.36Q47.54 13.25 49.13 13.25Q49.34 13.25 49.34 13.68Q49.34 14.11 49.13 14.11Q46.68 14.11 44.23 15.80Q41.78 17.50 39.48 20.59Z M78.56 59.11Q73.37 59.11 69.16 57.28Q64.95 55.44 61.96 52.20Q58.97 48.96 57.35 44.75Q55.73 40.54 55.73 35.78Q55.73 29.95 58.00 25.56Q60.27 21.17 64.01 18.25Q67.76 15.34 72.22 13.90Q76.69 12.46 81.08 12.46Q86.41 12.46 90.62 14.36Q94.83 16.27 97.78 19.51Q100.73 22.75 102.28 26.86Q103.83 30.96 103.83 35.28Q103.83 40.32 101.81 44.64Q99.80 48.96 96.31 52.20Q92.81 55.44 88.24 57.28Q83.67 59.11 78.56 59.11ZM81.15 57.67Q86.19 57.67 90.29 55.33Q94.40 52.99 96.81 48.42Q99.22 43.85 99.22 37.30Q99.22 30.46 96.59 25.24Q93.97 20.02 89.21 17.03Q84.46 14.04 78.05 14.04Q69.70 14.04 65.02 19.22Q60.34 24.41 60.34 33.34Q60.34 38.38 61.82 42.80Q63.29 47.23 66.07 50.58Q68.84 53.93 72.65 55.80Q76.47 57.67 81.15 57.67Z M112.62 58.82Q111.68 58.82 111.40 58.72Q111.11 58.61 111.11 58.39Q111.11 58.18 111.50 56.48Q111.90 54.79 112.19 52.92L119.68 13.10Q120.18 10.80 119.06 10.15Q117.95 9.50 114.56 11.16Q114.28 11.30 114.10 10.87Q113.92 10.44 114.20 10.37L123.06 6.05Q123.35 5.90 123.64 6.19Q123.92 6.48 123.85 6.62L114.49 57.82Q114.35 58.82 112.62 58.82ZM130.84 58.90Q129.11 58.90 128.71 57.35Q128.32 55.80 129.04 51.84L131.12 40.39Q131.92 36.14 131.27 34.06Q130.62 31.97 128.32 31.97Q125.94 31.97 123.31 34.99Q120.68 38.02 118.34 43.81Q116.00 49.61 114.49 57.82L113.70 57.74Q115.21 49.39 117.77 43.02Q120.32 36.65 123.56 33.08Q126.80 29.52 130.33 29.52Q133.43 29.52 134.36 31.72Q135.30 33.91 134.44 39.02L132.06 51.84Q131.70 54.07 132.02 55.15Q132.35 56.23 133.28 56.23Q134.15 56.23 135.44 55.26Q136.74 54.29 138.32 52.70Q138.61 52.42 138.90 52.70Q139.19 52.99 138.90 53.28Q136.52 55.94 134.62 57.42Q132.71 58.90 130.84 58.90Z M145.95 59.18Q143.64 59.18 142.46 57.46Q141.27 55.73 141.77 51.70Q142.35 47.74 144.26 43.81Q146.16 39.89 148.86 36.65Q151.56 33.41 154.62 31.46Q157.68 29.52 160.49 29.52Q161.79 29.52 163.01 29.99Q164.24 30.46 165.10 31.54Q165.96 32.62 166.11 34.34L163.37 32.54Q164.16 32.40 165.32 31.36Q166.47 30.31 166.68 28.94Q166.83 28.73 167.22 28.80Q167.62 28.87 167.55 29.02L163.37 51.84Q162.65 56.23 164.52 56.23Q165.39 56.23 166.68 55.26Q167.98 54.29 169.56 52.70Q169.78 52.49 170.07 52.78Q170.36 53.06 170.14 53.28Q167.76 55.94 165.86 57.42Q163.95 58.90 162.08 58.90Q160.42 58.90 160.02 57.35Q159.63 55.80 160.35 51.84L162.08 41.76L163.23 40.54Q161.00 45.86 158.08 50.11Q155.16 54.36 152.03 56.77Q148.90 59.18 145.95 59.18ZM148.04 56.09Q150.12 56.09 152.39 54.47Q154.66 52.85 156.78 50.18Q158.91 47.52 160.49 44.28Q162.08 41.04 162.72 37.87Q163.30 35.35 162.18 33.55Q161.07 31.75 158.26 31.82Q155.67 31.90 152.90 34.20Q150.12 36.50 148.00 40.36Q145.88 44.21 145.16 49.10Q144.65 52.49 145.30 54.29Q145.95 56.09 148.04 56.09Z M179.42 58.90Q177.84 58.90 177.30 57.46Q176.76 56.02 177.55 51.84L180.50 36.86Q181.36 32.47 179.28 32.47Q178.41 32.47 177.04 33.34Q175.68 34.20 174.09 35.86Q173.88 36.14 173.55 35.82Q173.23 35.50 173.52 35.28Q175.96 32.54 177.94 31.18Q179.92 29.81 181.72 29.81Q183.45 29.81 183.88 31.36Q184.32 32.90 183.52 36.86L180.64 51.84Q180.21 54.07 180.57 55.15Q180.93 56.23 181.87 56.23Q182.66 56.23 184.03 55.37Q185.40 54.50 186.98 52.85Q187.27 52.56 187.56 52.88Q187.84 53.21 187.56 53.42Q185.18 56.16 183.20 57.53Q181.22 58.90 179.42 58.90ZM183.88 21.02Q182.52 21.02 181.76 20.30Q181.00 19.58 181.00 18.22Q181.00 16.99 181.76 16.27Q182.52 15.55 183.88 15.55Q185.25 15.55 185.97 16.27Q186.69 16.99 186.69 18.22Q186.69 21.02 183.88 21.02Z M197.05 57.82 196.33 57.74Q196.91 54.65 197.99 50.90Q199.07 47.16 200.51 43.45Q201.95 39.74 203.57 36.65Q205.19 33.55 206.88 31.68Q208.57 29.81 210.15 29.81Q211.09 29.81 211.99 30.31Q212.89 30.82 213.43 31.68Q213.97 32.54 213.75 33.55Q213.54 34.49 213.00 34.88Q212.46 35.28 211.67 35.28Q210.59 35.28 210.12 34.67Q209.65 34.06 209.33 33.44Q209.00 32.83 208.28 32.83Q207.20 32.83 205.94 34.56Q204.68 36.29 203.31 39.10Q201.95 41.90 200.72 45.25Q199.50 48.60 198.53 51.91Q197.55 55.22 197.05 57.82ZM195.25 58.82Q194.31 58.82 194.06 58.72Q193.81 58.61 193.81 58.39Q193.81 58.18 194.21 56.34Q194.60 54.50 194.89 52.92L197.12 40.32Q197.77 37.01 197.63 35.35Q197.48 33.70 196.94 33.08Q196.40 32.47 195.75 32.47Q194.67 32.47 193.49 33.34Q192.30 34.20 191.36 35.06Q191.22 35.21 190.93 34.96Q190.64 34.70 190.79 34.49Q192.80 32.18 194.64 31.00Q196.47 29.81 198.27 29.81Q199.50 29.81 200.18 30.67Q200.87 31.54 200.94 33.80Q201.01 36.07 200.22 40.32L197.05 57.82Q196.91 58.82 195.25 58.82Z"/>
</svg>